<svg width="34" height="34" viewBox="0 0 34 34" fill="none" xmlns="http://www.w3.org/2000/svg">
<path d="M13.2137 23.7999V10.1999H19.7046C20.5653 10.1999 21.3908 10.5069 21.9994 11.0535C22.6081 11.6 22.95 12.3413 22.95 13.1142C22.95 13.8871 22.6081 14.6284 21.9994 15.1749C21.3908 15.7214 20.5653 16.0285 19.7046 16.0285H11.05M19.7046 19.9142H11.05M30.6 16.9999C30.6 24.511 24.5111 30.5999 17 30.5999C9.48895 30.5999 3.40002 24.511 3.40002 16.9999C3.40002 9.48883 9.48895 3.3999 17 3.3999C24.5111 3.3999 30.6 9.48883 30.6 16.9999Z" stroke="black" stroke-width="2" stroke-linecap="round" stroke-linejoin="round"/>
</svg>
