<svg width="122" height="23" viewBox="0 0 122 23" fill="none" xmlns="http://www.w3.org/2000/svg">
<path d="M0.426136 21L3.32386 3.54545H15.0852L14.5739 6.58807H6.50284L5.82102 10.7472H13.2869L12.7756 13.7898H5.30966L4.62784 17.9574H12.733L12.2216 21H0.426136ZM20.9339 21.2557C19.5874 21.2557 18.4794 20.9716 17.6101 20.4034C16.7464 19.8295 16.1413 19.0341 15.7947 18.017C15.4538 17 15.3942 15.8295 15.6158 14.5057C15.8317 13.1648 16.2834 11.9886 16.9709 10.9773C17.6584 9.96023 18.5305 9.16761 19.5874 8.59943C20.6499 8.02557 21.843 7.73864 23.1669 7.73864C24.3089 7.73864 25.2749 7.94602 26.0646 8.36079C26.8544 8.77557 27.4339 9.35795 27.8033 10.108C28.1726 10.858 28.2976 11.7386 28.1783 12.75H24.7607C24.7663 12.1023 24.5987 11.5767 24.2578 11.1733C23.9169 10.7699 23.4169 10.5682 22.7578 10.5682C22.1896 10.5682 21.6669 10.7216 21.1896 11.0284C20.718 11.3295 20.3175 11.7699 19.9879 12.3494C19.6641 12.929 19.4368 13.6307 19.3061 14.4545C19.1697 15.2898 19.1669 16 19.2976 16.5852C19.4283 17.1705 19.6783 17.6165 20.0476 17.9233C20.4169 18.2301 20.8828 18.3835 21.4453 18.3835C21.8658 18.3835 22.255 18.2983 22.6129 18.1278C22.9766 17.9574 23.2947 17.7102 23.5675 17.3864C23.8402 17.0568 24.0504 16.6619 24.1982 16.2017H27.6243C27.3913 17.2074 26.968 18.0881 26.3544 18.8438C25.7464 19.5994 24.9822 20.1903 24.0618 20.6165C23.1413 21.0426 22.0987 21.2557 20.9339 21.2557ZM35.071 21.2557C33.7358 21.2557 32.6307 20.9716 31.7557 20.4034C30.8807 19.8295 30.2642 19.0341 29.9062 18.017C29.554 16.9943 29.4886 15.804 29.7102 14.446C29.9261 13.1051 30.375 11.9318 31.0568 10.9261C31.7386 9.92045 32.6051 9.1392 33.6562 8.58239C34.7074 8.01989 35.892 7.73864 37.2102 7.73864C38.5398 7.73864 39.642 8.02557 40.517 8.59943C41.392 9.16761 42.0085 9.96307 42.3665 10.9858C42.7244 12.0085 42.7926 13.1989 42.571 14.5568C42.3494 15.892 41.8949 17.0625 41.2074 18.0682C40.5199 19.0739 39.6534 19.858 38.608 20.4205C37.5625 20.9773 36.3835 21.2557 35.071 21.2557ZM35.429 18.4432C36.0426 18.4432 36.5852 18.2699 37.0568 17.9233C37.5341 17.571 37.929 17.0937 38.2415 16.4915C38.5597 15.8835 38.7812 15.196 38.9062 14.429C39.0312 13.6733 39.0398 13.0028 38.9318 12.4176C38.8239 11.8267 38.5966 11.3608 38.25 11.0199C37.9091 10.679 37.4403 10.5085 36.8438 10.5085C36.2301 10.5085 35.6847 10.6847 35.2074 11.0369C34.7301 11.3835 34.3352 11.8608 34.0227 12.4688C33.7102 13.0767 33.4915 13.767 33.3665 14.5398C33.2472 15.2898 33.2386 15.9602 33.3409 16.5511C33.4432 17.1364 33.6676 17.5994 34.0142 17.9403C34.3608 18.2756 34.8324 18.4432 35.429 18.4432ZM61.4233 3.54545L58.5256 21H55.3381L49.5852 10.0142H49.4489L47.6165 21H43.9261L46.8239 3.54545H50.0625L55.7898 14.5227H55.9347L57.75 3.54545H61.4233ZM65.2053 21.2472C64.3757 21.2472 63.657 21.1023 63.049 20.8125C62.4467 20.517 62.0036 20.0795 61.7195 19.5C61.4354 18.9205 61.3643 18.2017 61.5064 17.3438C61.6314 16.6165 61.8672 16.0085 62.2138 15.5199C62.5661 15.0256 62.995 14.6278 63.5007 14.3267C64.0064 14.0256 64.5661 13.7955 65.1797 13.6364C65.799 13.4773 66.4382 13.3693 67.0973 13.3125C67.8587 13.233 68.478 13.1562 68.9553 13.0824C69.4382 13.0085 69.799 12.9034 70.0376 12.767C70.2763 12.625 70.4212 12.4148 70.4723 12.1364V12.0852C70.5575 11.5511 70.4581 11.1364 70.174 10.8409C69.8956 10.5398 69.4496 10.3892 68.8359 10.3892C68.1882 10.3892 67.6371 10.5312 67.1825 10.8153C66.7337 11.0994 66.4126 11.4602 66.2195 11.8977L62.9126 11.625C63.2081 10.8295 63.6541 10.142 64.2507 9.5625C64.853 8.97727 65.5774 8.52841 66.424 8.21591C67.2706 7.89773 68.2195 7.73864 69.2706 7.73864C69.9979 7.73864 70.6768 7.82386 71.3075 7.99432C71.9439 8.16477 72.4922 8.42898 72.9524 8.78693C73.4183 9.14489 73.7536 9.60511 73.9581 10.1676C74.1683 10.7244 74.2109 11.392 74.0859 12.1705L72.6115 21H69.1683L69.4751 19.1847H69.3729C69.0945 19.5938 68.7536 19.9545 68.3501 20.267C67.9467 20.5739 67.4837 20.8153 66.9609 20.9915C66.4382 21.1619 65.853 21.2472 65.2053 21.2472ZM66.6626 18.7415C67.1911 18.7415 67.6768 18.6364 68.12 18.4261C68.5689 18.2102 68.9382 17.9205 69.228 17.5568C69.5234 17.1932 69.7109 16.7812 69.7905 16.321L70.0121 14.9318C69.8984 15.0057 69.7337 15.071 69.5178 15.1278C69.3075 15.1847 69.0774 15.2386 68.8274 15.2898C68.5831 15.3352 68.3359 15.3778 68.0859 15.4176C67.8359 15.4517 67.6115 15.4858 67.4126 15.5199C66.9751 15.5824 66.5831 15.6818 66.2365 15.8182C65.8899 15.9545 65.6087 16.1392 65.3928 16.3722C65.1768 16.5994 65.0433 16.8835 64.9922 17.2244C64.9126 17.7188 65.0291 18.0966 65.3416 18.358C65.6598 18.6136 66.1001 18.7415 66.6626 18.7415ZM89.3459 7.90909L82.5874 21H78.4964L76.1016 7.90909H79.8004L80.9595 17.2756H81.0959L85.3658 7.90909H89.3459ZM89.022 21L91.2038 7.90909H94.8345L92.6527 21H89.022ZM93.3942 6.20454C92.8544 6.20454 92.4084 6.02557 92.0561 5.66761C91.7095 5.30398 91.5675 4.87216 91.63 4.37216C91.6925 3.8608 91.9368 3.42898 92.3629 3.0767C92.7891 2.71875 93.272 2.53977 93.8118 2.53977C94.3516 2.53977 94.7919 2.71875 95.1328 3.0767C95.4737 3.42898 95.6158 3.8608 95.5589 4.37216C95.5021 4.87216 95.2607 5.30398 94.8345 5.66761C94.4141 6.02557 93.9339 6.20454 93.3942 6.20454Z" fill="#FF6F61"/>
<circle cx="115.5" cy="2.5" r="2.5" fill="#B399FF"/>
<circle cx="121" cy="4" r="1" fill="#A8A8A8"/>
<circle cx="106" cy="9" r="5" fill="#FFD971"/>
<ellipse cx="111.5" cy="19" rx="3.5" ry="4" fill="#FF9D9D"/>
</svg>
