<svg width="132" height="166" viewBox="0 0 132 166" fill="none" xmlns="http://www.w3.org/2000/svg">
<circle cx="77" cy="14" r="14" fill="#CEBEFF"/>
<circle cx="113" cy="21" r="7" fill="#B1B1B1"/>
<circle cx="35.5" cy="50.5" r="27.5" fill="#FFE293"/>
<circle cx="103.5" cy="67.5" r="16.5" fill="#BCFFD5"/>
<circle cx="66" cy="105" r="21" fill="#FFA6A6"/>
<path d="M3.09943 165L6.96307 141.727H22.6449L21.9631 145.784H11.2017L10.2926 151.33H20.2472L19.5653 155.386H9.6108L8.7017 160.943H19.5085L18.8267 165H3.09943ZM30.4432 165.341C28.6477 165.341 27.1705 164.962 26.0114 164.205C24.8598 163.439 24.053 162.379 23.5909 161.023C23.1364 159.667 23.0568 158.106 23.3523 156.341C23.6402 154.553 24.2424 152.985 25.1591 151.636C26.0758 150.28 27.2386 149.223 28.6477 148.466C30.0644 147.701 31.6553 147.318 33.4205 147.318C34.9432 147.318 36.2311 147.595 37.2841 148.148C38.3371 148.701 39.1098 149.477 39.6023 150.477C40.0947 151.477 40.2614 152.652 40.1023 154H35.5455C35.553 153.136 35.3295 152.436 34.875 151.898C34.4205 151.36 33.7538 151.091 32.875 151.091C32.1174 151.091 31.4205 151.295 30.7841 151.705C30.1553 152.106 29.6212 152.693 29.1818 153.466C28.75 154.239 28.447 155.174 28.2727 156.273C28.0909 157.386 28.0871 158.333 28.2614 159.114C28.4356 159.894 28.7689 160.489 29.2614 160.898C29.7538 161.307 30.375 161.511 31.125 161.511C31.6856 161.511 32.2045 161.398 32.6818 161.17C33.1667 160.943 33.5909 160.614 33.9545 160.182C34.3182 159.742 34.5985 159.216 34.7955 158.602H39.3636C39.053 159.943 38.4886 161.117 37.6705 162.125C36.8598 163.133 35.8409 163.92 34.6136 164.489C33.3864 165.057 31.9962 165.341 30.4432 165.341ZM49.2926 165.341C47.5123 165.341 46.0388 164.962 44.8722 164.205C43.7055 163.439 42.8835 162.379 42.4062 161.023C41.9366 159.659 41.8494 158.072 42.1449 156.261C42.4328 154.473 43.0313 152.909 43.9403 151.568C44.8494 150.227 46.0047 149.186 47.4062 148.443C48.8078 147.693 50.3873 147.318 52.1449 147.318C53.9176 147.318 55.3873 147.701 56.554 148.466C57.7206 149.223 58.5426 150.284 59.0199 151.648C59.4972 153.011 59.5881 154.598 59.2926 156.409C58.9972 158.189 58.3911 159.75 57.4744 161.091C56.5578 162.432 55.4025 163.477 54.0085 164.227C52.6146 164.97 51.0426 165.341 49.2926 165.341ZM49.7699 161.591C50.5881 161.591 51.3116 161.36 51.9403 160.898C52.5767 160.428 53.1032 159.792 53.5199 158.989C53.9441 158.178 54.2396 157.261 54.4062 156.239C54.5729 155.231 54.5843 154.337 54.4403 153.557C54.2964 152.769 53.9934 152.148 53.5312 151.693C53.0767 151.239 52.4517 151.011 51.6562 151.011C50.8381 151.011 50.1108 151.246 49.4744 151.716C48.8381 152.178 48.3116 152.814 47.8949 153.625C47.4782 154.436 47.1866 155.356 47.0199 156.386C46.8608 157.386 46.8494 158.28 46.9858 159.068C47.1222 159.848 47.4214 160.466 47.8835 160.92C48.3456 161.367 48.9744 161.591 49.7699 161.591ZM84.429 141.727L80.5653 165H76.3153L68.6449 150.352H68.4631L66.0199 165H61.0994L64.9631 141.727H69.2812L76.9176 156.364H77.1108L79.5312 141.727H84.429ZM89.4716 165.33C88.3655 165.33 87.4072 165.136 86.5966 164.75C85.7936 164.356 85.2027 163.773 84.8239 163C84.4451 162.227 84.3504 161.269 84.5398 160.125C84.7064 159.155 85.0208 158.345 85.483 157.693C85.9527 157.034 86.5246 156.504 87.1989 156.102C87.8731 155.701 88.6193 155.394 89.4375 155.182C90.2633 154.97 91.1155 154.826 91.9943 154.75C93.0095 154.644 93.8352 154.542 94.4716 154.443C95.1155 154.345 95.5966 154.205 95.9148 154.023C96.233 153.833 96.4261 153.553 96.4943 153.182V153.114C96.608 152.402 96.4754 151.848 96.0966 151.455C95.7254 151.053 95.1307 150.852 94.3125 150.852C93.4489 150.852 92.714 151.042 92.108 151.42C91.5095 151.799 91.0814 152.28 90.8239 152.864L86.4148 152.5C86.8087 151.439 87.4034 150.523 88.1989 149.75C89.0019 148.97 89.9678 148.371 91.0966 147.955C92.2254 147.53 93.4905 147.318 94.892 147.318C95.8617 147.318 96.767 147.432 97.608 147.659C98.4564 147.886 99.1875 148.239 99.8011 148.716C100.422 149.193 100.869 149.807 101.142 150.557C101.422 151.299 101.479 152.189 101.312 153.227L99.3466 165H94.7557L95.1648 162.58H95.0284C94.6572 163.125 94.2027 163.606 93.6648 164.023C93.1269 164.432 92.5095 164.754 91.8125 164.989C91.1155 165.216 90.3352 165.33 89.4716 165.33ZM91.4148 161.989C92.1193 161.989 92.767 161.848 93.358 161.568C93.9564 161.28 94.4489 160.894 94.8352 160.409C95.2292 159.924 95.4792 159.375 95.5852 158.761L95.8807 156.909C95.7292 157.008 95.5095 157.095 95.2216 157.17C94.9413 157.246 94.6345 157.318 94.3011 157.386C93.9754 157.447 93.6458 157.504 93.3125 157.557C92.9792 157.602 92.6799 157.648 92.4148 157.693C91.8314 157.777 91.3087 157.909 90.8466 158.091C90.3845 158.273 90.0095 158.519 89.7216 158.83C89.4337 159.133 89.2557 159.511 89.1875 159.966C89.0814 160.625 89.2367 161.129 89.6534 161.477C90.0777 161.818 90.6648 161.989 91.4148 161.989ZM121.659 147.545L112.648 165H107.193L104 147.545H108.932L110.477 160.034H110.659L116.352 147.545H121.659ZM121.227 165L124.136 147.545H128.977L126.068 165H121.227ZM127.057 145.273C126.337 145.273 125.742 145.034 125.273 144.557C124.811 144.072 124.621 143.496 124.705 142.83C124.788 142.148 125.114 141.572 125.682 141.102C126.25 140.625 126.894 140.386 127.614 140.386C128.333 140.386 128.92 140.625 129.375 141.102C129.83 141.572 130.019 142.148 129.943 142.83C129.867 143.496 129.545 144.072 128.977 144.557C128.417 145.034 127.777 145.273 127.057 145.273Z" fill="#787878"/>
</svg>
