<svg width="32" height="32" viewBox="0 0 32 32" fill="none" xmlns="http://www.w3.org/2000/svg">
<path d="M8.5 28.1668L21.25 16.1668L27.25 22.1668M8.5 28.1668H23.5C25.9853 28.1668 28 26.152 28 23.6668V15.4168M8.5 28.1668C6.01472 28.1668 4 26.152 4 23.6668V8.66675C4 6.18147 6.01472 4.16675 8.5 4.16675H16.75M22 5.60159C22 3.98072 23.3431 2.66675 25 2.66675C26.6569 2.66675 28 3.98072 28 5.60159C28 7.22246 26.6569 8.53644 25 8.53644M25 12.5295V12.4168M13 10.9168C13 12.1594 11.9926 13.1668 10.75 13.1668C9.50736 13.1668 8.5 12.1594 8.5 10.9168C8.5 9.67411 9.50736 8.66675 10.75 8.66675C11.9926 8.66675 13 9.67411 13 10.9168Z" stroke="black" stroke-width="2" stroke-linecap="round" stroke-linejoin="round"/>
</svg>
