<svg width="24" height="24" viewBox="0 0 24 24" fill="none" xmlns="http://www.w3.org/2000/svg">
<path d="M12 14.3999L11.3438 15.1545C11.7201 15.4817 12.2799 15.4817 12.6562 15.1545L12 14.3999ZM6.87317 15.2542C7.40445 15.1033 7.71283 14.5503 7.56196 14.0191C7.41108 13.4878 6.85809 13.1794 6.32681 13.3303L6.87317 15.2542ZM17.6732 13.3303C17.1419 13.1794 16.5889 13.4878 16.438 14.0191C16.2872 14.5503 16.5955 15.1033 17.1268 15.2542L17.6732 13.3303ZM16.8 7.09555H15.8C15.8 7.64012 15.5847 8.31631 15.1705 9.08156C14.7636 9.83343 14.2085 10.5919 13.6329 11.2801C13.0601 11.9649 12.4845 12.5597 12.0507 12.984C11.8344 13.1955 11.6549 13.3633 11.5307 13.4771C11.4687 13.534 11.4205 13.5773 11.3885 13.6057C11.3726 13.62 11.3607 13.6305 11.3531 13.6372C11.3493 13.6405 11.3466 13.6428 11.3451 13.6442C11.3443 13.6449 11.3438 13.6453 11.3436 13.6455C11.3435 13.6456 11.3434 13.6456 11.3435 13.6456C11.3435 13.6456 11.3436 13.6455 11.3436 13.6455C11.3437 13.6454 11.3438 13.6453 12 14.3999C12.6562 15.1545 12.6563 15.1544 12.6565 15.1542C12.6566 15.1542 12.6568 15.154 12.6569 15.1538C12.6573 15.1536 12.6577 15.1532 12.6581 15.1528C12.6591 15.152 12.6603 15.1509 12.6619 15.1495C12.6649 15.1469 12.6691 15.1432 12.6744 15.1385C12.685 15.1292 12.7001 15.1159 12.7193 15.0988C12.7576 15.0646 12.8126 15.0152 12.8818 14.9518C13.02 14.8251 13.2156 14.6423 13.4493 14.4136C13.9155 13.9575 14.5399 13.3131 15.1671 12.5632C15.7915 11.8166 16.4364 10.9446 16.9295 10.0335C17.4153 9.13567 17.8 8.1162 17.8 7.09555H16.8ZM12 14.3999C12.6562 13.6453 12.6563 13.6454 12.6564 13.6455C12.6564 13.6455 12.6565 13.6456 12.6565 13.6456C12.6565 13.6456 12.6565 13.6456 12.6564 13.6455C12.6562 13.6453 12.6557 13.6449 12.6549 13.6442C12.6533 13.6428 12.6507 13.6405 12.6469 13.6372C12.6393 13.6305 12.6274 13.62 12.6115 13.6057C12.5795 13.5773 12.5313 13.534 12.4693 13.4771C12.345 13.3633 12.1656 13.1955 11.9493 12.984C11.5155 12.5597 10.9399 11.9649 10.3671 11.2801C9.7915 10.5919 9.23636 9.83343 8.82947 9.08156C8.41533 8.31631 8.2 7.64012 8.2 7.09555H7.2H6.2C6.2 8.1162 6.58466 9.13567 7.07052 10.0335C7.56363 10.9446 8.20849 11.8166 8.83292 12.5632C9.46013 13.3131 10.0845 13.9575 10.5507 14.4136C10.7844 14.6423 10.9799 14.8251 11.1182 14.9518C11.1874 15.0152 11.2424 15.0646 11.2807 15.0988C11.2999 15.1159 11.3149 15.1292 11.3256 15.1385C11.3309 15.1432 11.3351 15.1469 11.3381 15.1495C11.3396 15.1509 11.3409 15.152 11.3418 15.1528C11.3423 15.1532 11.3427 15.1536 11.343 15.1538C11.3432 15.154 11.3434 15.1542 11.3435 15.1542C11.3437 15.1544 11.3438 15.1545 12 14.3999ZM7.2 7.09555H8.2C8.2 5.07511 9.88048 3.3999 12 3.3999V2.3999V1.3999C8.81758 1.3999 6.2 3.92933 6.2 7.09555H7.2ZM12 2.3999V3.3999C14.1195 3.3999 15.8 5.07511 15.8 7.09555H16.8H17.8C17.8 3.92933 15.1824 1.3999 12 1.3999V2.3999ZM21.6 17.5999H20.6C20.6 17.8038 20.505 18.0886 20.1438 18.4445C19.779 18.8038 19.1999 19.1735 18.4036 19.5053C16.8154 20.167 14.5519 20.5999 12 20.5999V21.5999V22.5999C14.75 22.5999 17.2866 22.1374 19.1728 21.3514C20.1138 20.9593 20.9406 20.467 21.5474 19.8693C22.1577 19.268 22.6 18.5005 22.6 17.5999H21.6ZM12 21.5999V20.5999C9.44806 20.5999 7.18462 20.167 5.59638 19.5053C4.80008 19.1735 4.22096 18.8038 3.85619 18.4445C3.49495 18.0886 3.39999 17.8038 3.39999 17.5999H2.39999H1.39999C1.39999 18.5005 1.8423 19.268 2.45263 19.8693C3.05943 20.467 3.8862 20.9593 4.82715 21.3514C6.71343 22.1374 9.25 22.5999 12 22.5999V21.5999ZM2.39999 17.5999H3.39999C3.39999 17.3489 3.55103 16.9617 4.15974 16.4925C4.75842 16.0311 5.6786 15.5934 6.87317 15.2542L6.59999 14.2922L6.32681 13.3303C4.98606 13.711 3.80624 14.2398 2.93876 14.9085C2.08129 15.5694 1.39999 16.476 1.39999 17.5999H2.39999ZM17.4 14.2922L17.1268 15.2542C18.3214 15.5934 19.2416 16.0311 19.8402 16.4925C20.449 16.9617 20.6 17.3489 20.6 17.5999H21.6H22.6C22.6 16.476 21.9187 15.5694 21.0612 14.9085C20.1937 14.2398 19.0139 13.711 17.6732 13.3303L17.4 14.2922Z" fill="black"/>
</svg>
