<svg width="24" height="24" viewBox="0 0 24 24" fill="none" xmlns="http://www.w3.org/2000/svg">
<path d="M5.4 19.1999C5.86117 18.6834 8.02105 16.3066 8.65401 16.3066H15.3464C16.2636 16.3066 18.136 18.2768 18.6 18.9713M21.6 11.9999C21.6 17.3018 17.3019 21.5999 12 21.5999C6.69807 21.5999 2.4 17.3018 2.4 11.9999C2.4 6.69797 6.69807 2.3999 12 2.3999C17.3019 2.3999 21.6 6.69797 21.6 11.9999ZM15.4388 8.72786C15.4388 6.89635 13.8927 5.3999 12.0003 5.3999C10.1079 5.3999 8.56174 6.89635 8.56174 8.72786C8.56174 10.5594 10.1079 12.0558 12.0003 12.0558C13.8927 12.0558 15.4388 10.5594 15.4388 8.72786Z" stroke="black" stroke-width="2"/>
</svg>
