<svg width="32" height="32" viewBox="0 0 32 32" fill="none" xmlns="http://www.w3.org/2000/svg">
<path d="M15.3267 3.6185C15.6021 3.06044 16.3979 3.06044 16.6733 3.6185L20.2386 10.8427C20.348 11.0643 20.5594 11.2179 20.804 11.2534L28.7763 12.4119C29.3922 12.5013 29.6381 13.2582 29.1924 13.6926L23.4236 19.3158C23.2466 19.4883 23.1659 19.7368 23.2076 19.9804L24.5695 27.9205C24.6747 28.5339 24.0309 29.0016 23.4801 28.712L16.3494 24.9632C16.1306 24.8482 15.8693 24.8482 15.6506 24.9632L8.5199 28.712C7.96906 29.0016 7.32526 28.5339 7.43046 27.9205L8.7923 19.9804C8.83408 19.7368 8.75333 19.4883 8.57636 19.3158L2.80752 13.6926C2.36188 13.2582 2.60779 12.5013 3.22365 12.4119L11.196 11.2534C11.4405 11.2179 11.652 11.0643 11.7613 10.8427L15.3267 3.6185Z" stroke="black" stroke-width="2" stroke-linejoin="round"/>
</svg>
