<svg width="24" height="24" viewBox="0 0 24 24" fill="none" xmlns="http://www.w3.org/2000/svg">
<rect width="24" height="24" fill="black" fill-opacity="0.01"/>
<path d="M14.3995 14.8597V8.95333M5.01177 3.45972H12.0011C12.0408 4.87478 13.2003 6.00972 14.625 6.00972C16.0497 6.00972 17.2092 4.87478 17.2489 3.45972H18.9882C21.0934 3.45972 22.8 5.1663 22.8 7.27148V16.7284C22.8 18.8336 21.0934 20.5402 18.9882 20.5402H17.2489C17.2092 19.1251 16.0497 17.9902 14.625 17.9902C13.2003 17.9902 12.0408 19.1251 12.0011 20.5402H5.01178C2.9066 20.5402 1.20001 18.8336 1.20001 16.7284L1.2 7.27148C1.2 5.1663 2.90659 3.45972 5.01177 3.45972Z" stroke="#FF6F61" stroke-width="2" stroke-linecap="round" stroke-linejoin="round"/>
</svg>
